<svg width="218" height="24" viewBox="0 0 218 24" fill="none" xmlns="http://www.w3.org/2000/svg">
<path d="M7.05822 23.0285V5.13084H0V0.971535H19.221V5.13084H12.1628V23.0285H7.05822Z" fill="black"/>
<path d="M26.6625 9.85733H37.2814V13.8276H26.6625V9.85733ZM27.0407 18.9322H39.0459V23.0285H21.9676V0.971535H38.6363V5.06782H27.0407V18.9322Z" fill="black"/>
<path d="M40.2086 23.0285L50.0397 0.971535H55.0813L64.9439 23.0285H59.5872L51.5207 3.55535H53.5373L45.4392 23.0285H40.2086ZM45.1241 18.302L46.4791 14.4263H57.8226L59.2091 18.302H45.1241Z" fill="black"/>
<path d="M67.2323 23.0285V0.971535H71.4546L80.8446 16.5374H78.6074L87.8398 0.971535H92.0306L92.0936 23.0285H87.3041L87.2726 8.31334H88.1549L80.7815 20.6967H78.4813L70.9504 8.31334H72.0218V23.0285H67.2323Z" fill="black"/>
<path d="M138.612 23.0285V5.13084H131.554V0.971532H150.775V5.13084H143.717V23.0285H138.612Z" fill="black"/>
<path d="M158.216 9.85732H168.835V13.8276H158.216V9.85732ZM158.594 18.9322H170.6V23.0285H153.521V0.971532H170.19V5.06782H158.594V18.9322Z" fill="black"/>
<path d="M185.217 23.4066C183.516 23.4066 181.93 23.1335 180.459 22.5873C179.01 22.0201 177.749 21.2219 176.678 20.1926C175.607 19.1632 174.766 17.9554 174.157 16.5689C173.569 15.1825 173.275 13.6595 173.275 12C173.275 10.3405 173.569 8.8175 174.157 7.43106C174.766 6.04463 175.607 4.83675 176.678 3.80742C177.77 2.7781 179.041 1.99035 180.491 1.44418C181.94 0.877003 183.526 0.593414 185.249 0.593414C187.16 0.593414 188.883 0.92952 190.416 1.60173C191.971 2.25293 193.273 3.21924 194.324 4.50064L191.046 7.52559C190.29 6.66432 189.45 6.02362 188.526 5.60349C187.601 5.16235 186.593 4.94178 185.501 4.94178C184.471 4.94178 183.526 5.10983 182.665 5.44594C181.804 5.78204 181.058 6.26519 180.428 6.89539C179.797 7.52559 179.304 8.27133 178.947 9.1326C178.611 9.99387 178.443 10.9497 178.443 12C178.443 13.0503 178.611 14.0061 178.947 14.8674C179.304 15.7287 179.797 16.4744 180.428 17.1046C181.058 17.7348 181.804 18.218 182.665 18.5541C183.526 18.8902 184.471 19.0582 185.501 19.0582C186.593 19.0582 187.601 18.8481 188.526 18.428C189.45 17.9869 190.29 17.3252 191.046 16.4429L194.324 19.4678C193.273 20.7492 191.971 21.7261 190.416 22.3983C188.883 23.0705 187.15 23.4066 185.217 23.4066Z" fill="black"/>
<path d="M212.895 0.971532H218V23.0285H212.895V0.971532ZM202.875 23.0285H197.771V0.971532H202.875V23.0285ZM213.274 13.9851H202.497V9.66826H213.274V13.9851Z" fill="black"/>
<rect x="101.493" y="0.183788" width="23.6324" height="23.6324" rx="5.51423" fill="black"/>
<rect x="109.371" y="4.91027" width="7.87747" height="14.1795" rx="1.57549" fill="#F6F6F6"/>
<rect x="111.734" y="7.27351" width="3.15099" height="9.45297" rx="0.787747" fill="black"/>
<rect x="111.734" y="11.2123" width="3.15099" height="5.51423" rx="0.787747" fill="#373737"/>
</svg>
